<svg xmlns="http://www.w3.org/2000/svg" viewBox="0 0 128 128">
  <defs>
    <linearGradient id="bg" x1="12" y1="10" x2="116" y2="118" gradientUnits="userSpaceOnUse">
      <stop stop-color="#35E7B5"/>
      <stop offset="0.48" stop-color="#FF6B8A"/>
      <stop offset="1" stop-color="#4B5CFF"/>
    </linearGradient>
    <linearGradient id="tile" x1="38" y1="34" x2="90" y2="94" gradientUnits="userSpaceOnUse">
      <stop stop-color="#FFF7D7"/>
      <stop offset="1" stop-color="#FFD0DC"/>
    </linearGradient>
  </defs>
  <rect x="8" y="8" width="112" height="112" rx="31" fill="url(#bg)"/>
  <g fill="none" stroke="#FFFDF3" stroke-linecap="round" stroke-linejoin="round" stroke-width="2.8" opacity="0.92">
    <path d="M30 30h68M30 98h68M30 24v80M98 24v80"/>
    <path d="M30 52h68M30 76h68M52 30v68M76 30v68" opacity="0.72"/>
  </g>
  <rect x="54" y="54" width="20" height="20" rx="4" fill="#FFFDF3" opacity="0.98"/>
  <path d="M58 69l5.2-5.4 3.5 3.7 2.6-2.9L72 69H58z" fill="#FF4F79"/>
  <circle cx="60.5" cy="59.5" r="2.2" fill="#FF4F79"/>
  <rect x="32" y="32" width="18" height="18" fill="url(#tile)" opacity="0.92"/>
  <rect x="78" y="78" width="18" height="18" fill="#FFFDF3" opacity="0.9"/>
</svg>